<mxfile host="Electron" modified="2024-10-16T05:35:59.176Z" agent="Mozilla/5.0 (Windows NT 10.0; Win64; x64) AppleWebKit/537.36 (KHTML, like Gecko) draw.io/24.5.3 Chrome/124.0.6367.207 Electron/30.0.6 Safari/537.36" etag="G3GR2ewNYWFd5VQ5FNeK" version="24.5.3" type="device">
  <diagram name="ページ1" id="UTu1TZvdBzEs2BnWj2Kf">
    <mxGraphModel dx="2947" dy="762" grid="1" gridSize="10" guides="1" tooltips="1" connect="1" arrows="1" fold="1" page="1" pageScale="1" pageWidth="827" pageHeight="1169" math="0" shadow="0">
      <root>
        <mxCell id="0" />
        <mxCell id="1" parent="0" />
        <mxCell id="NWSBmNuGx8_1oZ4nkqe4-1" value="state: 好き&lt;div&gt;system utterance:&amp;nbsp;豚骨ラーメンとか塩ラーメンなどいろんな種類のラーメンがありますが、どんなラーメンが好きですか？&lt;/div&gt;" style="rounded=0;whiteSpace=wrap;html=1;" vertex="1" parent="1">
          <mxGeometry x="-1550" y="510" width="170" height="120" as="geometry" />
        </mxCell>
        <mxCell id="NWSBmNuGx8_1oZ4nkqe4-2" value="" style="endArrow=classic;html=1;rounded=0;exitX=1;exitY=0.5;exitDx=0;exitDy=0;entryX=0;entryY=0.5;entryDx=0;entryDy=0;" edge="1" parent="1" source="NWSBmNuGx8_1oZ4nkqe4-1" target="NWSBmNuGx8_1oZ4nkqe4-3">
          <mxGeometry width="50" height="50" relative="1" as="geometry">
            <mxPoint x="-1310" y="720" as="sourcePoint" />
            <mxPoint x="-1170" y="480" as="targetPoint" />
          </mxGeometry>
        </mxCell>
        <mxCell id="NWSBmNuGx8_1oZ4nkqe4-3" value="state: 豚骨ラーメンが好き" style="rounded=0;whiteSpace=wrap;html=1;" vertex="1" parent="1">
          <mxGeometry x="-1190" y="330" width="180" height="70" as="geometry" />
        </mxCell>
        <mxCell id="NWSBmNuGx8_1oZ4nkqe4-4" value="" style="endArrow=classic;html=1;rounded=0;exitX=1;exitY=0.5;exitDx=0;exitDy=0;entryX=0;entryY=0.5;entryDx=0;entryDy=0;" edge="1" parent="1" source="NWSBmNuGx8_1oZ4nkqe4-1" target="NWSBmNuGx8_1oZ4nkqe4-6">
          <mxGeometry width="50" height="50" relative="1" as="geometry">
            <mxPoint x="-1370" y="580" as="sourcePoint" />
            <mxPoint x="-1090" y="465" as="targetPoint" />
          </mxGeometry>
        </mxCell>
        <mxCell id="NWSBmNuGx8_1oZ4nkqe4-6" value="state: 特定のラーメンが好き" style="rounded=0;whiteSpace=wrap;html=1;" vertex="1" parent="1">
          <mxGeometry x="-1080" y="550" width="180" height="70" as="geometry" />
        </mxCell>
        <mxCell id="NWSBmNuGx8_1oZ4nkqe4-7" value="state: 知らないラーメンが好き" style="rounded=0;whiteSpace=wrap;html=1;" vertex="1" parent="1">
          <mxGeometry x="-1230" y="760" width="180" height="70" as="geometry" />
        </mxCell>
        <mxCell id="NWSBmNuGx8_1oZ4nkqe4-8" value="state: #final" style="rounded=0;whiteSpace=wrap;html=1;" vertex="1" parent="1">
          <mxGeometry x="-1340" y="870" width="180" height="70" as="geometry" />
        </mxCell>
        <mxCell id="NWSBmNuGx8_1oZ4nkqe4-9" value="" style="endArrow=classic;html=1;rounded=0;entryX=-0.002;entryY=0.654;entryDx=0;entryDy=0;entryPerimeter=0;" edge="1" parent="1" target="NWSBmNuGx8_1oZ4nkqe4-7">
          <mxGeometry width="50" height="50" relative="1" as="geometry">
            <mxPoint x="-1380" y="570" as="sourcePoint" />
            <mxPoint x="-1070" y="595" as="targetPoint" />
          </mxGeometry>
        </mxCell>
        <mxCell id="NWSBmNuGx8_1oZ4nkqe4-10" value="" style="endArrow=classic;html=1;rounded=0;entryX=0;entryY=0.5;entryDx=0;entryDy=0;exitX=1;exitY=0.5;exitDx=0;exitDy=0;" edge="1" parent="1" source="NWSBmNuGx8_1oZ4nkqe4-1" target="NWSBmNuGx8_1oZ4nkqe4-8">
          <mxGeometry width="50" height="50" relative="1" as="geometry">
            <mxPoint x="-1370" y="580" as="sourcePoint" />
            <mxPoint x="-1070" y="736" as="targetPoint" />
          </mxGeometry>
        </mxCell>
        <mxCell id="NWSBmNuGx8_1oZ4nkqe4-11" value="&lt;i&gt;conditions:&lt;/i&gt;&lt;div&gt;type=特定のラーメンが好き&lt;br&gt;_eq(#好きなラーメン,&amp;nbsp; &quot;豚骨ラーメン&quot;)&lt;/div&gt;&lt;div&gt;&lt;i&gt;actions&lt;/i&gt;:&amp;nbsp;&lt;br&gt;_set(&amp;amp;topic_ramen,&amp;nbsp; #好きなラーメン)&lt;br&gt;&lt;/div&gt;" style="text;html=1;align=left;verticalAlign=middle;whiteSpace=wrap;rounded=0;" vertex="1" parent="1">
          <mxGeometry x="-1490" y="350" width="250" height="70" as="geometry" />
        </mxCell>
        <mxCell id="NWSBmNuGx8_1oZ4nkqe4-12" value="&lt;i&gt;conditions:&lt;/i&gt;&lt;div&gt;type=特定のラーメンが好き&lt;br&gt;is_known_ramen(#好きなラーメン)&lt;br&gt;&lt;i&gt;actions&lt;/i&gt;:&amp;nbsp;&lt;/div&gt;&lt;div&gt;_set(&amp;amp;topic_ramen,&amp;nbsp; #好きなラーメン); get_ramen_location(*topic_ramen, &amp;amp;location)&lt;br&gt;&lt;/div&gt;&lt;div&gt;&lt;br&gt;&lt;/div&gt;" style="text;html=1;align=left;verticalAlign=middle;whiteSpace=wrap;rounded=0;" vertex="1" parent="1">
          <mxGeometry x="-1270" y="480" width="290" height="60" as="geometry" />
        </mxCell>
        <mxCell id="NWSBmNuGx8_1oZ4nkqe4-13" value="&lt;i&gt;conditions&lt;/i&gt;:&lt;div&gt;type=特定のラーメンが好き&lt;br&gt;is_novel_ramen(#好きなラーメン)&lt;/div&gt;&lt;div&gt;&lt;i&gt;actions&lt;/i&gt;:&amp;nbsp;&lt;/div&gt;&lt;div&gt;&lt;span style=&quot;color: rgb(51, 51, 51); font-family: &amp;quot;Open Sans&amp;quot;, &amp;quot;Clear Sans&amp;quot;, &amp;quot;Helvetica Neue&amp;quot;, Helvetica, Arial, &amp;quot;Segoe UI Emoji&amp;quot;, sans-serif; white-space-collapse: preserve; background-color: rgb(255, 255, 255);&quot;&gt;&lt;font style=&quot;font-size: 12px;&quot;&gt;_set(&amp;amp;topic_ramen,  #好きなラーメン)&lt;/font&gt;&lt;/span&gt;&lt;br&gt;&lt;/div&gt;" style="text;html=1;align=left;verticalAlign=middle;whiteSpace=wrap;rounded=0;" vertex="1" parent="1">
          <mxGeometry x="-1270" y="660" width="290" height="60" as="geometry" />
        </mxCell>
      </root>
    </mxGraphModel>
  </diagram>
</mxfile>
